<?xml version="1.0" encoding="UTF-8"?>
<svg width="128" height="128" viewBox="0 0 128 128" xmlns="http://www.w3.org/2000/svg">
  <defs>
    <linearGradient id="bg" x1="0%" y1="0%" x2="100%" y2="100%">
      <stop offset="0%" style="stop-color:#1f2937;stop-opacity:1" />
      <stop offset="100%" style="stop-color:#374151;stop-opacity:1" />
    </linearGradient>
    <linearGradient id="accent" x1="0%" y1="0%" x2="100%" y2="100%">
      <stop offset="0%" style="stop-color:#3b82f6;stop-opacity:1" />
      <stop offset="100%" style="stop-color:#1d4ed8;stop-opacity:1" />
    </linearGradient>
  </defs>
  
  <!-- Background -->
  <rect width="128" height="128" rx="16" fill="url(#bg)"/>
  
  <!-- Main crop frame -->
  <rect x="16" y="16" width="96" height="72" rx="4" fill="none" stroke="url(#accent)" stroke-width="3"/>
  
  <!-- Corner indicators -->
  <rect x="14" y="14" width="8" height="8" rx="1" fill="url(#accent)"/>
  <rect x="106" y="14" width="8" height="8" rx="1" fill="url(#accent)"/>
  <rect x="14" y="80" width="8" height="8" rx="1" fill="url(#accent)"/>
  <rect x="106" y="80" width="8" height="8" rx="1" fill="url(#accent)"/>
  
  <!-- Image representation -->
  <rect x="24" y="24" width="80" height="56" rx="2" fill="#4b5563" opacity="0.6"/>
  
  <!-- Mountains (simple image content) -->
  <polygon points="24,64 40,40 56,50 80,35 104,55 104,80 24,80" fill="#6b7280" opacity="0.8"/>
  
  <!-- Sun -->
  <circle cx="88" cy="40" r="8" fill="#fbbf24" opacity="0.9"/>
  
  <!-- Tools indicator -->
  <rect x="20" y="96" width="88" height="16" rx="8" fill="url(#accent)" opacity="0.3"/>
  
  <!-- Sliders/controls -->
  <rect x="28" y="100" width="20" height="2" rx="1" fill="url(#accent)"/>
  <rect x="52" y="100" width="24" height="2" rx="1" fill="url(#accent)"/>
  <rect x="80" y="100" width="16" height="2" rx="1" fill="url(#accent)"/>
  
  <!-- Adjustment knobs -->
  <circle cx="38" cy="101" r="2" fill="#ffffff"/>
  <circle cx="64" cy="101" r="2" fill="#ffffff"/>
  <circle cx="88" cy="101" r="2" fill="#ffffff"/>
  
  <!-- Enhanced indicator -->
  <circle cx="110" cy="18" r="6" fill="#10b981"/>
  <text x="110" y="22" text-anchor="middle" font-family="Arial, sans-serif" font-size="8" font-weight="bold" fill="white">✓</text>
</svg>
